<?xml version="1.0" encoding="UTF-8"?>
<svg width="40px" height="42px" viewBox="0 0 40 42" version="1.1" xmlns="http://www.w3.org/2000/svg" xmlns:xlink="http://www.w3.org/1999/xlink">
    <!-- Generator: Sketch 58 (84663) - https://sketch.com -->
    <title>Fill 31</title>
    <desc>Created with Sketch.</desc>
    <g id="01-Homepage-/-nav" stroke="none" stroke-width="1" fill="none" fill-rule="evenodd">
        <g id="Homepage" transform="translate(-755.000000, -782.000000)" fill="#008BD2">
            <g id="Group-19-Copy" transform="translate(135.000000, 570.000000)">
                <g id="Group-4">
                    <g id="Group-20" transform="translate(0.000000, 122.000000)">
                        <g id="Group-26" transform="translate(512.000000, 0.000000)">
                            <g id="Group-23-Copy-2" transform="translate(28.000000, 90.000000)">
                                <path d="M120,42 L120,14.574768 L110.18412,14.574768 L110.18412,0 L80,0 L80,14.574768 L80,18.7666636 L80,42 L120,42 Z M84.1787934,6.31138473 L106.006099,6.31138473 L106.006099,4.17723054 L84.1787934,4.17723054 L84.1787934,6.31138473 Z M84.1787934,10.4013967 L106.006099,10.4013967 L106.006099,8.60453919 L84.1787934,8.60453919 L84.1787934,10.4013967 Z M84.1787934,14.574768 L106.006099,14.574768 L106.006099,12.6937793 L84.1787934,12.6937793 L84.1787934,14.574768 Z M115.821979,37.8227695 L102.026479,37.8227695 L102.026479,34.5632638 L97.0131625,34.5632638 L97.0131625,37.8227695 L84.1780214,37.8227695 L84.1780214,18.7666636 L110.18412,18.7666636 L110.18412,18.7519985 L115.821979,18.7519985 L115.821979,37.8227695 Z M105.762149,30.3698245 L110.775466,30.3698245 L110.775466,22.7316365 L105.762149,22.7316365 L105.762149,30.3698245 Z M97.0131625,30.3705963 L102.026479,30.3705963 L102.026479,22.7324083 L97.0131625,22.7324083 L97.0131625,30.3705963 Z M88.2634037,30.3705963 L93.2767206,30.3705963 L93.2767206,22.7324083 L88.2634037,22.7324083 L88.2634037,30.3705963 Z" id="Fill-31"></path>
                            </g>
                        </g>
                    </g>
                </g>
            </g>
        </g>
    </g>
</svg>