<?xml version="1.0" encoding="UTF-8"?>
<svg width="61px" height="45px" viewBox="0 0 61 45" version="1.1" xmlns="http://www.w3.org/2000/svg" xmlns:xlink="http://www.w3.org/1999/xlink">
    <!-- Generator: Sketch 58 (84663) - https://sketch.com -->
    <title>mortarboard (1)</title>
    <desc>Created with Sketch.</desc>
    <g id="01-Homepage-/-nav" stroke="none" stroke-width="1" fill="none" fill-rule="evenodd">
        <g id="Homepage" transform="translate(-235.000000, -778.000000)" fill="#B71B54" fill-rule="nonzero" stroke="#B71B54" stroke-width="0.882352941">
            <g id="Group-19-Copy" transform="translate(135.000000, 570.000000)">
                <g id="Group-4">
                    <g id="Group-20" transform="translate(0.000000, 122.000000)">
                        <g id="Group-18">
                            <g id="Group-23" transform="translate(43.000000, 87.000000)">
                                <g id="Group-5">
                                    <g id="mortarboard-(1)" transform="translate(57.000000, 0.000000)">
                                        <path d="M60,12.5828082 L29.9308777,0 L-2.84217094e-14,12.5828082 L10.6517029,17.0608921 L10.6517029,27.9111166 L29.9304199,35.9416005 L49.3304443,27.9139007 L49.3304443,17.0479001 L52.8359986,15.5811896 L52.8359986,28.9973455 C50.7957458,29.7309328 49.3304443,31.7057256 49.3304443,34.0220239 C49.3304443,36.3383223 50.7957458,38.3131151 52.8359986,39.0467023 L52.8359986,42.9053436 L56.3415527,42.9053436 L56.3415527,39.0467023 C58.3818054,38.3131151 59.8471069,36.3383223 59.8471069,34.0220239 C59.8471069,31.7057256 58.3818054,29.7309328 56.3415527,28.9973455 L56.3415527,14.114015 L60,12.5828082 Z M54.5887757,35.7986878 C53.6224365,35.7986878 52.8359986,35.0015322 52.8359986,34.0220239 C52.8359986,33.0420516 53.6224365,32.2448959 54.5887757,32.2448959 C55.5551147,32.2448959 56.3415527,33.0420516 56.3415527,34.0220239 C56.3415527,35.0015322 55.5551147,35.7986878 54.5887757,35.7986878 Z M45.8248901,25.52661 L29.9349975,32.1019833 L14.1572571,25.529394 L14.1572571,18.5345627 L29.9308777,25.1660803 L45.8248901,18.5150747 L45.8248901,25.52661 Z M29.934082,21.3204312 L9.15069586,12.5828082 L29.934082,3.84564917 L50.8135986,12.5828082 L29.934082,21.3204312 Z" id="Shape"></path>
                                        <polygon id="Path" points="28.1799316 10.8061442 31.6854858 10.8061442 31.6854858 14.3599361 28.1799316 14.3599361"></polygon>
                                    </g>
                                </g>
                            </g>
                        </g>
                    </g>
                </g>
            </g>
        </g>
    </g>
</svg>