<?xml version="1.0" encoding="UTF-8"?>
<svg width="52px" height="47px" viewBox="0 0 52 47" version="1.1" xmlns="http://www.w3.org/2000/svg" xmlns:xlink="http://www.w3.org/1999/xlink">
    <!-- Generator: Sketch 58 (84663) - https://sketch.com -->
    <title>Shape</title>
    <desc>Created with Sketch.</desc>
    <g id="01-Homepage-/-nav" stroke="none" stroke-width="1" fill="none" fill-rule="evenodd">
        <g id="Homepage" transform="translate(-493.000000, -776.000000)" fill="#5EBFBC" fill-rule="nonzero">
            <g id="Group-19-Copy" transform="translate(135.000000, 570.000000)">
                <g id="Group-4">
                    <g id="Group-20" transform="translate(0.000000, 122.000000)">
                        <g id="Group-25" transform="translate(256.000000, 0.000000)">
                            <g id="suitcase" transform="translate(102.000000, 84.000000)">
                                <path d="M37.1309524,8.76515152 L51.4166667,8.76515152 L51.4166667,46.4166667 L0.583333333,46.4166667 L0.583333333,8.76515152 L14.8690476,8.76515152 L14.8690476,0.583333333 L37.1309524,0.583333333 L37.1309524,8.76515152 Z M18.7636054,4.48484848 L18.7636054,8.76515152 L33.2363946,8.76515152 L33.2363946,4.48484848 L18.7636054,4.48484848 Z M47.5221088,42.5151515 L47.5221088,20.8135288 L32.0289116,27.3517654 L32.0289116,35.1666667 L19.9710884,35.1666667 L19.9710884,27.3517654 L4.47789116,20.8135288 L4.47789116,42.5151515 L47.5221088,42.5151515 Z M28.1343537,31.2651515 L28.1343537,24.9393939 L23.8656463,24.9393939 L23.8656463,31.2651515 L28.1343537,31.2651515 Z M47.5221088,12.6666667 L4.47789116,12.6666667 L4.47789116,16.5800528 L19.9710884,23.1182894 L19.9710884,21.0378788 L32.0289116,21.0378788 L32.0289116,23.1182894 L47.5221088,16.5800528 L47.5221088,12.6666667 Z" id="Shape"></path>
                            </g>
                        </g>
                    </g>
                </g>
            </g>
        </g>
    </g>
</svg>